<svg xmlns="http://www.w3.org/2000/svg" viewBox="0 0 652.27 595.11"><defs><style>.cls-1{fill:#c75629;stroke:#f2f2f2;stroke-miterlimit:10;stroke-width:2px;}</style></defs><g id="Layer_2" data-name="Layer 2"><g id="Layer_1-2" data-name="Layer 1"><path id="CR-A" class="cls-1" d="M225.37,145.3l-.21-3.06.06-2.23-3-.43-3-1.86-4-2.69-4.5-4.79-5.37-2.94-8.38-.08-2.26-3.34-3.06-2.9-3.26-2.15-4.08-5-1.72-4.5-.26-3.16-1.22-3.3-.63-2.12-2.26-.8-2.49-1.31-4.88-.85-2.44-1.43-2.54-.68-2.45.53-3-.15-1.95-.47-3.62-5-3.62-2.31-3.62-.88-3.73-.25-5,.55-5.93,1-3.62-.31-1.93-1.78-1.92-5.65-.14-3.23-3.15-1.92-6.24-2.43-3.16-2.84-1.63-3-1-2.69-.82-2.68-1.83-2.32-5.27-8.73,1.16-1.93,2.56-.59,3.73-1.71,2.58-2.26.82-1.47,1.75-5.47L116,36.3h4.45l2-2h3.35l3,3.67,3.05,2.15,2.27,0,.66-3,.39-4.47,1.06-4.1h0l2.42,1.11,7.46,4,41,14.76,14,5.86,22.48-13.16L244.88,28l.58.09,13.19,7.7,6.67-2.19,1,2.34.88,1.14,3.71,1.59L277.48,41l3.63,2,6.34,6.93,2.72,1.49,1.4.34,1.2,0,1.33-.46,1.34-.94,1.49-1.61.88-.46,3.86-.93,2.81-2.8.49-.26.53.23.79.8,1.76,2.9,0,1-.73,2.08-.62,1,.11,1,1.87,1.28,1.22,2.4.65,1.82.95,1,1.88-.1,2,.29,1.25.52.87.76,1.22,1.66.12,1,.62.51h2.64l4.06.86,1,.41L328.57,67l3.32,1.11.83,1,.48,1.42-.52,1.18.62,1.46.25,1.3L332.7,76l0,1-.67.65-2.89.85.38,1.2,1.42.67.51,1.06,2.34.55,1.69,1.08.23,1.45.9,1.44,1.19-1.16.93-.51h1.06l1.88.85,2.33.15,1.36-1h0l-2,39.14,1,32.71v24.27l-.74,22.48.74,14.52v5l-1,2.86v2.66l-1.56,4.59-1.09,2.28-2.92,2.56,1.38,4.41h0l-2.25-.11-2.84,1.29-2,1.72-1.39,1.6L328,248.4l-3.24,1.25-7.58.61-4.67,1.51-4.66.18L304.66,250l-2.61-.72h-4.71l-.11.29-7.72,1.59-2.65-.15-2.72,1.74-1.06,1.13-2.73,1.28-1.58,1.14-3,3-2.63.76L271,262.94l-.48,1.57-2.71,3.79-2.48,1h.3l-1.68-1.25-2.09-.95-1-1.32-.36-2.59-3-.79-2.88-.17-3.52.16-5-.87L244.57,259l.26-3.54,1.42-1.81,2.39-.78,2.33-5,1.65-1.87,3.18-.08,3-.26,2.5-3.31,3-2.85,4.42-1.65,1-3.45-.45-3.64-3-3.05-3.59-.43-6.87-.11-.78-2.45-.68-3.93-2.8-1.29-1.16-2-3-6.17,0-3.63-.31-5.07.39-2.58-2.2-1.48,1.5-3.18,1.54-2.39,1.55-3.75-1.07-3.74-2.33-2.45-1.95-2.46-2-.7-2.87.93-2.53,1.57L233,183.87l-6.32-4.4-3.31-4.82h0l2.37-3.92,1.36-4.37,1.12-.72-2.49-3.82.79-6.82-1.15-9.7"/><path id="CR-C" class="cls-1" d="M385.64,207l25,13.29,5.88,3.31L429.59,229l19.63,9.28h57.16l-1.16,2.09-2.56,1.22-.92,2.11.06,2.13-2.69.54.11,4.2.79,4,1.36,3.31v4.38l-.26,1.34,1.48,3.82L499,271.48l-7.43,10.3L489,284.62l-2.17,2.76L485,290.61l-.17,4.73-1.21,4.07-4.1,3.91-3.55,2.7-10.45,9.62,1.27,2.1,1.35,3.42.35,2.58-.33,2.72.69,2.11.93,3.71h0l-4.25-2L459.26,325l-2.68-1.08-3.59-.88-4.73-2.93-2-.92L444,316.55l-2.38-.86-2.06.29-1.41,1.19-1.1,2.11-3.06,2-2.38-1.15-3.95,1-2.26-.57-.86-2.11-2.82-.09-1.4-.89-.83-2.92.58-2.49-1.78.22-2.75-1.12-2.31-.63-2.16-1-2.89-.62L405.74,307l-1.37-2.68,0-4-.85-1.47-3.26-.55-1,.55-2.1-.29-1.51-.77L392.8,295l-1.72.86-1-.5-.61-1.31-2.05-1.32-2-.18-.73-1.07.24-1.91-.14-2.94-4.85-2.12L377.62,281l-1.8-4.68-1.43.61L369.27,280l-2.43.13-3.33.78-3.13-.2-2.05-1,.87-1.82-.3-2.64,1.15-.26,3.6-1.77,3.74-2.82,2-1.09.53-1.68,2.73-4.06,1-1.18.87-1.7.83-1.75,0-1.56-1-1.07-1.91-.06-3.17.43.27-2.83,2.84-2,2.41-2.84.22-3,1.31-.72,8.3-1.09,2.85.55L391,244l2-1.67,1.63-1.77,1.75.53,1.41.6,3.44-1.08.88-1.76-1.34-2.79-.56-3.33-.14-3.17-1.41-2.91-3-2.74-4-1.51-2.13-1.79-2.21-9.52Z"/><path id="CR-G" class="cls-1" d="M137.58,210.47l-1.19-.19-.22-.31-1.28,0-.66-.8-3.68.85-1.16,1.23.71.45.8-1.1,1.06.05.7.89-.85.51-.63.83.22.44.53,0,1.65-1.43.09-.53-.35-.62.58-.17.75.49,2.39.07,1,.67.39.92-.18.4-1.11.21,1.19.72.22.62-.94,1,.51,1.64.58-.57,2.15,2.23,1.36,1,4.23,1.77,1,.9-.63,4.5-.62-.14-.49.39.74.76,1.2-.12,1,1.82.84.18.61,1.07,1.33-.34.78,1.34.44,0,.27.54h0l-.87,1.2L150.43,239l-2.24,2.24-2.29.52-3.63-.31-1.06,1.13-4.18.86-2.79.88-3.84.44-3,2.91v3.3l2.12,1.56,4.11.93,3.64.48,4.47,1.55,4.41,7.9,4.16.58-1.36,2.92-1.6,2.7-.95,3.14.71,5.06-2.23,4.91L142,285.1l-2.49,3.35h0l-.9-.95-2.85-2.19-3.47-1.8,0-.75.53-.52.23-.88-1.12-3-5.18-4-1.76-1-2.07-.68-2.16-.33,0-1-1.53-1.3-4.35-2.65-1.85-.33-3.08-1.49-1.81-.55-.71,0-.54,1.1-1.68-.19-2.2-.91-.92-1-1-.5-2-.33-2.52.38L96,265.31l-.54.44-.8-.05-3.52-2-.34-1.24-.61-.4-1.91,1.22-.93-.14-.36.53-.48-.14-.16-1.64-1.93-1.57-.8-.09-1.73,1.09h-2l-2.51-1.19-2.08.56-1.14-.81-2.07-.24-1.76-1.52-1.73.34-1.19-.14h-3l-.7-.57-.21-1.33-1-.85-1.41-.41-1.24.08-.71.39,0,.62-.31.48-2.77-1.39.4-.84.58-.26.27-.84-.42-2.75L56.13,249l-1.36-1.87.18-.71L53.73,244l-3.81-4.76L49.36,238,48,236.72,46.58,236l-3.69-3.83-1-1.51L41.15,228l-.52-.89-2.37-2.06-.35-.84-.48-.18-.87-1.42L33.71,219l-.07-2-1.14-1.25L31.13,210l-1.23-1.52-.12-1.37-2.17-4.8-3-4.1.14-1.11-.47-2,.06-1.77-2.22-4.89-.16-1.95.59-1.94-1.08-3.82,2.37-2.15.89-1.37-.78-2.27-1.05-1.74-1.58-1.65-.61-1.07-.93-.32-.44-.58-.49.22-.66-.67-.49,0-.08-.62.72-1.72,1.29-.92.66,0,.61.67.54-.92.8.09.45-.66.37-1.55.67-.39,1.67-3.4.58-.13.49-.57.63-1.55.53.18.39.89,2.21.37.75-.39.72-.79,1.09-3.89-.51-2.57,1.24.14.48.93,1.16-.61,1-1.5.19-1.5-.66-.63-.38-2.57-1.46-.94.23-.53-.44-.36-.89-.14-.48-.49,0-1.6-1-1.07.76-.75-.57-1.11L30,137.5l.09-.4,3-.51.59-1.1.8-.57-.08-.71.58-.79,0-.35,1.16-.88,1.28.41.93-.17.48,1.16,1.19,1,1.29,0,3.61-3,2.22-.82L48.88,129l.13.4.79.54.8,0,1.12-1.45-.18-.4.18-.44L51,126.21l.13-.31,2-.16,1.47-.65.54-.53-.34-1.6.36-.53,1.5.15.45-.62,2.17.42.54-.44.41-.88.23-1.5,1.33.23.37-1.81.72-.66,1.11-.43.28-1.55-.24-.7-.66-.67-3.76-1.32-.89.35-1.34,1.19-1.83-.62-.13-.37-.85-.36-.81,0,.82-1,1-.09.6-1.2-.49-.68.14-.4,1.44.37,2.21-1.46.32-.75-1.47-6.93-1-2.65.49-1.49-.26-2,1-3.18.11-1.25-1.29-1.95-2.19-2-.89-1.31-.92-2.24-2.74.24-.84-1-1.4.08-.66-.68-.76-.1-1.71.3-1.7-1.09H42l-1.19.11-1.3.66L38.3,82.8l-2.41-1.46-2.77-.87-.9,0-.35-1.17-.53-.9-.68-.5-.35-.86.19-1.39,2.86.61.15-.81-1.2-2.35-2.52.7-1.48-.1-2.41-1-5.18-.12-1.4-3.48-.67-.55-2.38-.7-5.19-2.25-1-.86-1.7-.63-1,0-.71.53-3.24.83-1-.36L4.19,64l2.56-.52,1.71-.88.68-.71L12,61.5l1.17-.62,1.71-.21.59-.4.41-.76L18.18,59l1.06-2.11-.8-1L15.39,54.3H18l.54-.49,5.32,1,.71-.53,1.38.1,1.1.72.71-.17L29,56.21l.08.62-.89.75.43,2,.57.54,1.24.14,1.23,1.12,1.69.1.71-.44.18-.62-.22-.67-1.5-1.57.14.12h1l.77-2,.84.36.36-.58L37.42,56l.67.23.44,1,1-.79,1.73.24.63-.57,1.24,0,1,.32.66.58.45-.31.8.1.53.76-.23.84.88.72,1,.14.18-.48,0-1.22,1.27-.4.46-.81-.26-.72-2.92-1.53.45-.95,1.67.33.33-1,.77-.36L51.8,52l.73-.81.2-1.4-.4-.91-.81-.68L49.2,47l-3-3.57L45.43,43,44,42.9l-1-.78-1.62-.69-1.67-2.06,1.52-2.07h1.54l.23-.45-.49-.73.09-.44.73-.45,1.23.19L45,35l1.79,1.65.27,1,.36.31,4.26.81,1.68-.49,1.05-.94,1.14-.4.6-.86.24-.85-.43-3.32-1.17-1.24-1-.37L52.6,29.14,51,29.21l3.24-5.84,3.28-5.07.79-1.79,6.78-10.8.85-1.59.62-2.43L67.3,1l.91,0,8.45,1.3,1.49.4,1.47,1.45L83.38,9l1.16,2.07,1,.67h0l20.63,7.58,10,0,11.4,5.88,7.28,3.34h0l-1.06,4.16-.4,4.52-.67,3.08-2.29-.05L127.34,38l-3-3.73h-1.9l-2,1-4.81.07-1.24,1.38-1.76,5.52-.82,1.48L109.2,46l-3.77,1.73-2.59.59-1.17,2L107,59.14l1.85,2.33.82,2.72,1.06,2.71,1.64,3,3.2,2.89,6.31,2.45,3.18,2,.14,3.26,1.94,5.71,2,1.82,3.66.31,6-1,5.09-.54,3.76.24,3.67.9,3.65,2.34,3.67,5,2,.47,3,.16,2.47-.54,2.57.69,2.46,1.45,4.94.85,2.53,1.33,2.27.81.64,2.14,1.25,3.34.26,3.19,1.74,4.55,4.12,5.07,3.3,2.18,3.08,2.94,2.29,3.37,7.41.08,5.43,3,4.55,4.84,4,2.71,3,1.87,3.06.44-.06,2.25,1.4,1.85h0l1.06,6.8-.09,3.23-.8,6.88,2.52,3.85-1.13.72-1.38,4.42-2.39,3.94h0L221,171.51l-4.35-1.26-3.41,1.58-3.11,4.24-1,4.41L208.8,183l-3.33,8.85,1.05,6.89-3.89,1-4.16,3.8.73,3.78-2.42,4.32-2.53.07-4.15-2.48-10.06-4-4.43-2.41-3.68.1-.56.44-3.27,1.64-3.48-1.22-1-.81-1.28-.23-2.89,1.21-1.17,1.48-1.42.34-.53-.54-.88-.14-.7-.44-1.37.15-2-1.07-2.43-.38-.58.3-1.68-.46-1.14-.59-1.46-.33-1.5-1L141,199.71l-.38-2-1.13-2.39.71-.39.41-1.4-.21-1.33-1.22-2-1.45-1.43-.13-.8-1.19-.45-1.1-.93L132.42,185l-1.85-.64-.79-.81,1.13-2.19-.08-.89-3-3-1.06-.32-.83-.76L125.4,175l-1.49-1.34-5.4-.14-.8.21-1,1-1.32-1-1.46.07,1.23.76.79,1.12.66.17.8-.56,1.46.37,2.4-1.13.89,0,1.72.72,1.49,1.6,1.13,1.83,2.42,1.52.48.93v.71l-.68,1.8.21,1.51.57.67,2.12.46,1.58.89,4,3.44.51,2.4-.46,1.27-.11,2.65.51,1.9-.54,1.05.33,2.34-.23.48-.62.3-.14.88,1.32,5.13Z"/><path id="CR-H" class="cls-1" d="M371.47,85.2,373,87.65l.54,1.26,2.24,1.2.68.71.78.5,1.23.37,1.08.66.38.65.24,1.62,1,1,1.67.52,2.22.38.88.46.38.75.14.74.87,1.15,1.43.17,1.64-.47,2.29-.9,1.25-1.16,3.41.2,1.33.42,1.83-.17,1.16-1.22,1.53-.94,1.09-1.13.65-1.38,1.49-.67.74-.09,3.16.25,2.11-1.79,1.67-2.2.55-.48,1.48.19,3.81-.1,1.09-.44h0L424,89.1l-.29,2-.59,1.81,3.18,2.86,2.23,1.73,1.42,1.35,1.16,2.42-5.19,0-6.3-.23-2.31,2.21-2.35.53-2.14.11-2.06,2.44-1.56,2.48-2.77-.16L405,111.77l-.43,5.93.63,1.66,1.66,2.1-2.45,5.64-.07,3.83,2.51,5.73,1.23,4.9-1.46,4,.64,2.3-2.15,1.45h-3l-3.54,5.19-.5,2.79,1.8,5.09,2.8,3.68.93,5.23.32,5.65-1.47,3-2.09,3.52-1.49,4.95-1.59,2.7-2,3-2.12,2.54-3.67,2.53h0l-9.21,6.26-1.67,2.18.12,2.54-.29,6.53-1.62,2.06-2.28.52-3.39.21-.82,1.64-.13,1.68-.48,1.22,1.08,1.94,2.39,3.45-.5,2.9-1,2.86L369.16,238l-3.06,1.82-2.9,1.44h-2.88l-1.13.31-2.35.35-3.6,1.08-.88-.55-2.88-.39L346,243.3l-2.42-.23-.92-.2-1.28-.55-2.2-.57h0l-1.38-4.41,2.92-2.56,1.09-2.28,1.56-4.59V217.42l.26-14.52.74-22.48v-57l1-39.14h1.19l3.12,0,1.23,3.47,1.72.37,2-1.23.81,0,1.26.29,3.05,1.69,1.91.13,1.17-.33.54-1.79.9-.91.81-.23L366,86l1.77.78.18-1.34.42-1.08L369,84l1.34.07Z"/><path id="CR-L" class="cls-1" d="M449.29,72.47l1.38,5.79,2.26,6.34-3.67.58-1.15-3.47L447.16,78l-1.72-3.66-1.33,3.28,1.14,3.47L446.78,85l1,3.66-.19,3.86-1.72,3.09L442.58,97l3.82-.58,2.48-2.89L450.21,97l1-3.47L453.4,88l.31,2.57,1.77,5.53-.3.51.37,1.19.26-.1,2.27,5.54,1.35,4.19,4.06,9.11.42,1.65,1.81,3.48.15,1.78-.35,2.21,2.73,6.6.69,1.34.19-.79-2.8-7.67.36-.7,3.63,8.52.65,1,.63,2.45,1.1,2.76,2.12,3.23,3.44,6.57,3.67,5.73,2.15,4.38,1.69,1.8,5,7,1.89,3.36,4.76,4.73-.06.88-.75-.14-1-.86-.57-.16,0,.59L498,178.3l.23-.75.83.72,6.16,7.64,4.58,6.76.34,1,.56.72-.05.58,1.17,1.26,1,1.69.17.72-.64,1.72.06.47,1-.52.39.13.16-.35-.63-1.86-1.84-3.78L512,194l.78.72,2.38,3.59,7,8.26.3.72-.35-.05-.36.39.47.71.67,2.27.7.5.67-.08-1-1.61.23-.74L528,214l.45.29,1,1.88,1.08,1,1.12,1.79,3.14,3L544,234.43l1,1.12,3,1.38,1-.37.73-1,.67-.3h1.19l1.35-1h.73l1.12,1,1.34-.6,2.75,1.32,1,.91-.24,1,.34.76-.65,1.83.06,1.15,4,7,3.56,3.5.93,1.29-.14.44-.79.47.17.31,1.66.57,1.89,2.54,8.63,10.65,3.6,5.49,5.18,5.82,3.39,4.92,1.8.78,1.51,1.48,1.76.39h1.62l2.25-1.81.77.19.4.6-1.5,2-.21,2,.8.92,3,5.93.69,2.05,1.51.89.52,1.54,1.24,1.11,3.6.93,1.55-.65.73.15,3.92,2.2,1.37,0,2.59,1.13,1.86.27,2,.84,1.14-.75,1.84,1.07,2.38.45,1.19-.15,1.18-.88,1,0,1.61.89,1.12-.37,1.11.12,1.26,1.22-.29,2,.88.91.28,1.08.67.66.66,1.25,1.23,1.06,5.05,2.46,1.44,1.05.64.24.38.32.32,1.39,1,2.61-.1.9-1.47,0-.47-.42-1.49-2.54-1-.84-2.34-.21-1.3.14-.75.87-.17.57.14,1.14.91,2.94-.53,2-1.78,3.53-.66.55-1.93-.53h-1l-.67.83-.77.82-1.25,0-1-.94-1-2.19h-.5l-1.35.89-1,1-.64-1.6-1,.22-.36,0h-2.6l-1.57-1.15-.09-2-1.61-1.62,1.39-.81.32-.53-.47-.84-1-.55L621,322.33l-.52,1.8-.4.21-3.35-2.75.57-1.79-.08-.41-2.25-.47-.63-1.68-.57-.43-1.58-.62-1.92.05-1.47-1.62-2.8-1.9-.59-.17L602,313.9l-1.64-1.46L597.88,311l-.73-1.1-3.43.18-.92.64-.69-.05-.41.7-.48,2L588.94,315l-.73,3.74-.82.95.61.5-.08,2.07.48.19,1.29-.28.65.67-.24.88.34.93-.68,1.05.51.94-.51,1.09.26.62.82.86,2-.1.3.5-1,.95.17.27.53,0,.68-.56.74.37.36.79.84,0,.28.92-.39.45-3.44,1-11.69,2.43-2.14.72-.39.45-.36,6.15V361l1,2.66v44.68l-.16,4.33.43,1.07.5.33h0l.41,2.27-5-1.48L572,412.92l-2-3.81-2-11-2.74-1.48-5.78-1-4.06-1.1-.31-1,.61-3.13-2.37-4.77.34-2.2-.68-3.9-2.55-.91-5-2.63-4.14-1.9-2.67-.91-4.12-5.83-2.88-2.51-3.74.33-3.25.84-3.19-.72L519,361.69l-1.58-1-4.74-.91-2.82-2.23-2.13-2.3-3.85-2-2.73,1.28-.72,1-.32,3.18-.94,1.46-2.08-.46-1.72.16-3,1.41-1.92,1.55-.46-2.35-1.78-1.8-3.42-1.29h0l-4.5-3.25-4-8.19-2-4.84-1.3-6-3.18-2.85h0l-.93-3.71-.69-2.11.33-2.72-.35-2.58-1.35-3.42-1.27-2.1L475.93,306l3.55-2.7,4.1-3.91,1.21-4.07.17-4.73,1.87-3.23,2.17-2.76,2.52-2.84,7.43-10.3,3.64-4.08-1.48-3.82.26-1.34v-4.38L500,254.55l-.79-4-.11-4.2,2.69-.54-.06-2.13.92-2.11,2.56-1.22,1.16-2.09h-25.3l-32-.17-19.4-9.23-12.95-5.44L411,220.17,386.24,207h0l2.25-5.81,1.1-2.2h0l3.65-2.52,2.1-2.53,2-3,1.58-2.68,1.49-4.93,2.07-3.5,1.47-3-.32-5.62-.93-5.2L400,162.29l-1.79-5.06.5-2.78,3.52-5.15,2.85,0,2.16-1.45-.64-2.31,1.46-4-1.23-4.9-2.51-5.74.07-3.84,2.45-5.64-1.67-2.1-.62-1.67.42-5.94,1.43-3.07,2.77.17,1.56-2.49,2.07-2.44,2.14-.11,2.35-.53,2.31-2.21,6.31.23,5.26,0L430,98.63l-1.43-1.36-2.24-1.74-3.19-2.87.59-1.82.29-2-3-1.38h0l2-1.52,2-.91,2.45-.19,1.31-1.09,1.07-.12,1.79.74,3.38-.65,1.61-.83,2.11-3.13.45-2-1.8-5.23V70.65l.47-3.68-.24-1.34-.72-1.23-1-1,.72-2.94-.52-.95-2.7-3-.05-.74.21-.39,2.07.45,1.94.65,4,3.57,3.23,3.69Z"/><path id="CR-P" class="cls-1" d="M163.05,241.19l.79.72,1.81.24,1.33-1,1.43.1.3,1.2.8-.17.25,1.11.8-.08,1.34-1.62,1-.43h.84l4.62,2.84,1.17,1.87,2.32,2.46.92.28,2.53-.33,2.65.43.8-.48,2.79-.14,2,.91,1.9.42,1.54,1.17,1.76.64.52.67-.19,1,.25,1.2.52.8-.45.83-1.2.38L196.68,258l-.33,1.37.21.84L198.4,262l1,0,.34.84-.05.75.39.36.85-.12.79.94-.31.39-1.51-.19-2,1.88-.14.57.35.76,1.53,1.26,1.24.46.88-.08.36-.44,1.28-.12.89-.52,1.54.37,1.15-.16,2.61.69.08.4-.36.79-2.14.82-.46,1.14-2,.07-1,.25-.31.39-.55,1.67-.63.74-3.34.89-.23.44.52,1-1.67,2.85-.46,1.5-.62.35-1.81-.24-.45.44-.66-.18-.72,1.8.6,1.82v1l-.36.83-1.21.61-2.2-.64-1.66-1.52-1.76-.77-.66-.67-1.64.25-1.17.92-1.39,2.06-.33,1.46.21,1.11,2.38,1,.81.73.12.65-1,1.71-1.56,1-3.1.81-.93.52-1.34,1.71-2.63,1-2.69,3.19-1.68,4.18-.11,2L167,317.18l-.72,1.63-2.75.9-.32,1,.21,1.06-.27.3-.83-1-.39-1.15-1-.67-2.17-.46L157.13,317l-.61-1.33-.43-5.57-.74-.93-1.93-1.39-7.92-8.7-1-3.41-.69-1.33-1-.94-.78-2.17-2.55-3.06h0l2.49-3.35,2.82-2.44,2.23-4.91-.71-5.06,1-3.14,1.6-2.7,1.36-2.92-4.16-.58-4.42-7.9-4.47-1.55-3.65-.48-4.11-.93-2-1.56,0-2.89,3-2.91,3.85-.45,2.79-.88,4.18-.86,1.06-1.13,3.64.31,2.29-.52,2.24-2.25L152,234l.87-1.21h0l-.27.48.92,1.12,1.67.77,3.87,3.45,2.25.51.3,1.24.61.76.8.07ZM553.37,552.3l-2,2-.76,3.7,3,1.76,1.51,1.56.37,4.11-.51,3.13,3.36,8.72.17,5.81-1.08,5.49-.17,3.77-.21-.27-1.28-.11-.71-.41-2.19-3.72.38-1.23-.06-1.73.27-.3.93-.12.63-.61.47-1.45.17-1.63-.44-2.89-1.77-2.38-.42-1.51-1.21-1.44-.38-.94-.35-2.58-2.51-5.63-.25-1.1-5.6-5.22-2.61-2.63-1.88-1.27-1.43-2.11-.26-2.58.25-1.72.88-1.76,3.2-2.69,2.11-1.25,1-1.18.46-3.19,1.44-1.52.54-1-.07-.84L544.67,530l-1.86-2.74-5.35-6.14-1-3.43-1-1.44.54-.08.92.6.63,1.91.79.64.66-.12-.25-.81-.56-.41.06-.89.62-.38,2.21.44,2.26-2.36L545,515v-.42l-.76-.43-1.2-.11-3.14,1.67-.93,0-1.09-1L537,513.3l-1.33-.47,1.67-4.13,1-1.09,1.06.06.74.51.69-1-.08-.54-1.23-.59-.94.42-.39-.23-.46-1.73-3.74-4.68-1.8-.83-1-1.26-.9.6-.57-.58-.57-.05-.36.35,0,.26,1.32.47.3.58.07,1.11-.41.84-.67.3-.66-.06-.66-.58-1.9-.12-1.14-.95-.94.38-.84-.19-.3-.31.41-.79-.17-.49-.75-.33-2.7-.09-1,2.34-.61-.19-1.34-2.2-1-3-.58-.28-1.56.55-2.78-.94-1.07.11-1.44,1L506,492.41l-.8-.41-1.33-.15-.66-.32-.38-.77-1.15-.42-.44-.41.63-.78-.59-1.79.55-1.32.07-1.33,1.12-.87.29-1.85-1.23-.65-1,1h-.45l-.43-.57-1.08-.2-1.2-1.5-.82-.19-.44.56-1.65-.5-1.87-.16-.29-.18-.15-1.48-.39-.26-.75.46-.06.78-.91.59-.19,1.09-.4.26-.83-.06-.12-.79-.42-.4-.66.34-.65-.1-1.78,2.4-1.72,1.1-1.44.33-1-.24L481,482.4l-2.83,0-1.51-.5-1.12,0-.28.57-.57.33-1.17-.19-1.11,1.67-.25,1.91.41,1,.69.31.84-.81.82.1.73.57.12.53-.81,1.51.52.53.66-.55.74,0,1.15.85,1.42,1.59,1.46,1,1.43,2.67-.66,3,.12,1.09.8.6.39.85.86.88,2.14,1.73,2.14,2.47,1.63,1.42,1.29.72,1.21,0,1.46,1.46,2.56-.39,5.14,1.91,2.56,2.52,1.57,2.11,1.52.51,1.11.89.83-.47.19-1,.51.62.25.92L508.9,525l.59,1,3.33,3.75-.22.82-.68.9L510,533.21l.16.78,2,3,.21.83-1.55,4.09.64,2.93-.72,1.59-2,1.31-4.31-1.51-5-2.39-7.29-2.47-5.44-2.48-3.14-1.92-2-.73-9-1.8-4.07-.25-2.35.05-4.14.67-.27.26-1.2-.46-2,.58-1.21-.2-4.68-3.42-.5-1.78-1.44-1.9-2.44-2.25-4-2.32-7.3-8.16-6.12-6.31-2-.6-.25-.65-.83.37-.71.73-.63-1-.57-2.36-1.66-2.5.06-.69,1.29-2.37.42-1.65,1-1.34,1.36-.5.35-.6.46-4,.45-1.08,2.07-1.74,1.93-.67,5.7-.34.88-.34.66-.86.63-1.76-.23-2.18.63-1.85,1-1.21,1.31-.5.72-1-.47-.61-.69-.1-.53.6-.4,0-.4-2.05,0-.91.33-.82.47-.45,2.3-.11,1.81-.75,1.18-2,1,.65.05-.55-1.08-1.86.29-.22,2.86-.37,2-.6,1.59.57,1.59-1.22-.44-1.3L456,466l-.84.45-.15-1.79-.33,0-.37.69-.44,1.6-.93.36-3.18-.05-2.06-.4L447,469.6l-.52,1-1.68,1.13-.92-.1-2.62-2.8,5-5.36,1-.49.75-1,1.21-.4,1.11-.95.76-1.27,2.13-.61,2.47,1.23,1.42.12,1.32.85.6-.35-.71-1.3-1.91-1.46-.36-1,.43-.68,1,.84,3.63-.08,1.16-.35,1.79.59,1.31-.71.12.55-1.32,2.7-.75,2.94-1,1.31-.92.36-2.37,0-1.11.69-.42,1.23.07,1-.45.82-1-.19-.1.4.35.44.79.45.93-.29.66.1.63-.7-.15-1.36.41-.74,1.49-.37,1.65-1.07,1.24-3.06-.06-1.67.59-1.26.75-.25.91.68.49-.08,2.14-1.51,3.52-.51.54-.56-.34-.89-.79-.41-.32.61-.67.47h-2.54l-2,1.7-.52-.27-.08-.79,1.08-1.26-.61-.5-1.2.6-.92-.19-1.29,1.08-2.19-.7-2.21.49-1.4-.55-.95-1.12-.79-.1-.8.47-.24,1.28.5,1.81-.18.39h-.35l-.87-.72-.54-2-.88-.19-2.4-1.47-3.81,0,1.27-2.83.16-2.1,1.35,1,1.92.82,5.08.79,1.27.63.65.8,1.74.65-.48-2.33-1.18-.77-.38-.8.81-1.26.71-.12,1.48.6,1.19-.07.19-.88-.52-.58-1.63-.19-1.36.19-1.69.94-.77,1.62-.7.61-3.23-2-.58.17-1.74-.6-.7-.54-.34-1.1.14-.39.69.89,1.83.46,1.17,1,.92.06.49-.48,0-.53-3.45-1-.44-.32-.33-1.24-.39-.27-.74-.23-1.87,1.47-.71.08-.43-.36,0-.57.5-.83,2.36-2,.55-1.14-.21-.88.53-3.11-.2-1.63-1-1.95.06-.66-.62-2.45-.81-1.43,0-1,.41-1.32.67-.29,2.33.08v-.35l-2.54-.88-.62-1.86.15-1.49.67-.47v-.35l-.95-.19-.51-1.16-1.32-.11-.74-.36-1.63-2.22-1.53-.86-.81.87-.79,0L437.84,415l-2.53-1.62.19-.75-.25-.71-1.22-.42-1.07-1.9-3.64-3.29-.41-1.59-2.11-1.41-1-1.63-1.22-1.15-.81-.33-1.82.22-.84.55-.47,1.14h-.44l-1-.71.9-1.22-.55-1.73-.13-2.95-.56-1-2.3-2.06-3.88-2.27-6.48-2.69-2.32-.26-.26-.35.51-1.54-.65-.88-1.18-.86-1.76-2.5-5.14-3.73-1.74-1.69.15-1.06-.61-.45-.62.08-.53.61-3.71-2.69-.2-1.19-.43.08-.36.7-8.91-4.93L369.58,363l-.65-1,.86-1.49-.52-.45-.63.48-.42,1.76h-.52l-1.34-.51L363.57,360l-2.05-.57L358.64,358l-5.44-1.29-.85.21-1.49,1-.54-2.37-.49-.28-.54.27-.59.89-1.12-.16-.85.4-.78-1.8-1.19-1.23-1.12-.55-1.2-.12-.94.35-.8-.06,1.14-1.59,1.07.28.33-.8-1-2.91.63-1.11-1.35-1.8L339.09,344l-1.72-1.81-1.1-1.62-1.32-.91-4-1.36-1.5-1.54L328,333.8l-1-1-.67-.24-.42.67.53,1.13,3.52,4.2,1.59,1.09,1.83.61,1.47.06.54.32.25.94-.32.45-1.11,0L332,341.4l-.36-.49-3.1-1.34-2.3-1.64-1.49-2.44-2.32-.08-2-1-1.22.22.66.75.58.23,3.09.54.61.45v.54l-.53.17-3.41-1-.48,0-.45-.41-2.9-.22-.46.18-1.76-1.21-.77-.19-.63-.56.41-.49-.07-1.1-.49-.18-.65.81-1.28.07-.14.32.31.6-.28.13L300,331.57l-1-.87-.56.53-2.26-.29-.87-.38-.35-1.33-.72-.28-.78.76-1.18-.06-2.35-1-1.37-.06-2.93-1.18-1.91-.29-1.15.13-1.49-.57-.33.68-8.43,1.43-2-2.29-.44-.92L271,324.3l-.45-.92-2.1.74L267,322.88l-.49-.11.09.69.79.81-.27.24L265.44,323l-.31-.69h0l-2.32-2-4.65-2.71-.66-.54L256,314.57l.24-1.38-1.22-1.3-.25-.93-.65-.94-.44,0-1.14-1-1.11.56-.62-.23-1.62-1.52-.3-.71.94-.83.27-.75-.08-.71-1-1.12-1.19-.5-2,.55-.35-.4-.08-.62,1.34-1.4-.25-1.11.54-.88-.13-.58-1.22-.94.43-2.87.81-.92.67-.21.54-.84.14-1,.86-1.71,2.2-2.31,1-.21.54-1,.71-.52,1.14-3.12-1-4.83-.84-.54-3-5L247,269.64l-.52-.93-1.79-2-2.15-1-1.14-.9-.35-.67.14-.35.57.09.36-.3-1.21-1.83-5.21-4.18,0-.66.93-.56,1.17-1.31,1.31-2.12-.08-.62-2.37-1.8-2.14-2.28-.73-2,.33-2-.39-.8-.66-.67-1.06-.41-2.71-.08-2.47-.69L224,242l-2.78-.25-1.56.6h-3.31l-2,.36-.65-.17-.38-.79.32-.52,1.17-.55,3.7-.73-1.25-.28-1.13.12-3.07-1.12-1.94-1.54-5.26-3.23-1.59-1.28-3.1-2.08-.95-.06-.43-.56.1-.87-1.79.41-2.48-3.76-1.08-.49-.83.21-2.64-.81-.3-.45.35-.43,1-.38H193l-.6-1-.33-1.57-.73-1-1.94-1-2-.29-1.6-.76-3.25-3.68-1.39-1.18-2.84-1.29-1.82-1.19-.74-.09-1.14,1.33-.52.17-1.14-.61h0l-.64-6.88,3.61-.1,4.35,2.38,9.87,3.92,4.07,2.45,2.49-.07,2.37-4.26-.71-3.72,4.08-3.74,3.82-1-1-6.78,3.26-8.71.28-2.44,1-4.34,3-4.17,3.35-1.56,4.27,1.24,3.16,2.62h0l3.29,4.79,6.27,4.37,4.08-1.41,2.5-1.54,2.86-.94,1.94.69,1.92,2.44,2.33,2.44,1.06,3.71-1.54,3.73-1.52,2.36-1.49,3.16,2.18,1.47-.39,2.57.31,5,0,2.85,3,6,1.14,1.93,2.74,1.26.67,3.85.76,2.41,6.74.11,3.52.42,3,3,.44,3.57-1,3.38-4.33,1.62-3,2.8-2.46,3.24-3,.25-3.1.08-1.62,1.83-2.29,4.92-2.34.76L244.91,255l-.25,3.47,1.5,2.44,4.86.85,3.45-.15,2.82.16,2.9.79.36,2.53,1,1.3,2,.93,1.64,1.24h0l-2,2.25-.11,2.54,3.28-.09,1.56,4.4,2.7-.07,1.26,2-3.48,3.1-4.61-.22-1.3.84-.54,5.68,1.56,4.52-.45,4.57.93,2.52,4.5,4.84.1,3.63.95,3.38,2.61,3.16,1.34.55,3.55,1.06,6-.16,3.49-.67,3.21-.44.93,2.69,1.95,1.62,2.9-3.25,2.28-3,1.88-2.82-1.6-3.82,1.43-2.4,4.45.63,3.27-.43,6-.22,3.27-2.4,4.5,2.82,5.35,1.87,2.26,0,2.59-.19,4.15,2.13,6-2.11,4.1.41,1.59.81,1,2.21-.7,6,2.23,3.38,2.21.74,3.76-1.59,4.2,1.72-.51,6.61.33,3.83,3.38,1.34,2.59,4,3.39,1.69,3.77,2.82.33,1.65,1.46,2.88,2.93-.65,1.79,4.42L383,352.7l3.56-.66,1.22-2,1.51-1.53,3.08.66.61,3.31,2.26,4.75,2.6,2.74,2.18,1.55,2.08.12,2.27,1-2,4.36,0,3.15.57,6.46,5.19,4.28,6.44,3.26,5,.84,4.3-5.16,6.41,4.47,3.56,5.91,2.28,5.21,2.11,3.67,3.61,1.1,4.62,2.11,3.16,4.32,9.05,3.71,2.52,1.88,4.09-.46,3.13-1.46,1.86-1.65,1.41-3.07.07-3.95,2.81-2.82,1.56-4.17-.27-1.6-1.17-2.71-4,.05L468,389.22l-2-1.72.14-1.16,2.22-3.09.41-4.13-.26-1.2,1.67-2.44,2.26-1.55,1.8-1.77,2.84-5.92,2.75-2.7,1.77-3,2.68-3.57h0l3.44,1.28,1.77,1.79.46,2.33,1.93-1.54,3-1.4,1.73-.16,2.09.46.94-1.46.32-3.16.72-1,2.74-1.27,3.86,2,2.13,2.29,2.83,2.21,4.75.91,1.59,1,2.52,3.54,3.18.72,3.27-.83,3.74-.33,2.9,2.51,4.13,5.78,2.68.91,4.14,1.89,5,2.61,2.57.91.68,3.87-.34,2.19,2.38,4.75-.61,3.11.32,1L559.2,395l5.79,1,2.76,1.47,2,10.94,2,3.78,2.59,1.94,5,1.47-.41-2.26h0l.33.22,5.62-3,1.22-.13,1.13.33,2.28,4.11,1.18,1.54,10,6.23,3,3.23,7.12,1.8,3.45,2.4.74.85,1.36,4.25,3.81,3.32.11,2-.33,1.13-5.78,3-1.34,2.61-1.95,2.45-1.24.72-6.8,1.38-1,.43-1.55,1.7-1.39.5-5.11.73-1.38.49-1.63,1-2.25,2.52-.42,1.5.37.92,2.6,2.54,0,.91-.55,1-.92.67-3.46,1.51-.27,2.26-3.29.76-1.08.81.64,1.58-.07.72-.64.89v1.36l2.65,3.14,1.31,3.25,3,2.23,2.6,1.34.58.72.45,2.26,1.42,1.51.5,1.95,1.63,1.57,2,2.9,1,2-.14,1.43-1.28,1.45.1.57.95,1-.1,3.42,1.15,2.59,0,1.22-.64,1.59-1.56,1.42-.54.88.88,4.66.08,3.09-.88,4-1.84,3.9-2.17,3-1.5,1.17-2.25,1.1-4.19,1.11-1.93,0-1.42-.42-2-.1-4.14,4.25-4.49,5.39-3.89,3.45-4.66,2.6-4.7.81Z"/><path id="CR-SJ" class="cls-1" d="M386.07,207.28l1.66,4.17,2.2,9.52,2.12,1.79,3.95,1.51,3,2.74,1.4,2.91.14,3.17.55,3.33,1.34,2.79-.88,1.76-3.42,1.08-1.4-.6-1.74-.53-1.62,1.77-2,1.67L388,245l-2.83-.55-8.25,1.09-1.31.72-.21,3-2.4,2.84-2.82,2-.27,2.83,3.15-.43,1.9.06,1.44,1.07v1.56L375,261l-.87,1.7-1,1.18-2.71,4.06-.53,1.68-2,1.09-3.72,2.82-3.58,1.77-1.14.26.3,2.64-.87,1.82,2,1,3.11.2,3.31-.78,2.42-.13,5.09-3.08,1.42-.61,1.79,4.68,2.28,3.51,4.82,2.12.14,2.94-.24,1.91.72,1.07,2,.18,2,1.32.61,1.31,1,.5,1.71-.86,2.89,2.86,1.51.77,2.08.29,1-.55,3.24.55,1.5,1.47v3.64l.37,2.68,2.46,1.83,2.89.62,2.16,1,2.31.63,2.75,1.12,1.78-.22-.58,2.49.83,2.92,1.4.89,2.82.09.86,2.11,2.26.57,3.95-1,2.38,1.15,3.06-2,1.1-2.11,1.41-1.19,2.06-.29,2.38.86,2.26,2.65,2,.92,4.73,2.93,3.59.88,2.68,1.08,6.23,5.31,4.25,2h0l3.18,2.85,1.3,6,2,4.84,4,8.19,4.5,3.25h0L482.07,361l-1.76,3-2.75,2.72-2.83,5.95-1.8,1.78L470.67,376,469,378.42l.26,1.21-.4,4.16-2.22,3.11-.14,1.16,2,1.73,2.67,1.51h4l1.17,2.31.27,1.6-1.56,4.19-2.8,2.84-.07,4-1.41,3.09L469,411l-3.12,1.47-4.07.45L459.23,411l-9-3.73-3.17-4.35-4.6-2.12-3.6-1.11L436.74,396l-2.26-5.24-3.55-5.95-6.39-4.49-4.3,5.18-5-.85-6.41-3.28-5.18-4.3-.31-6.49,0-2.69,2-4.42-2.29-1-2.08-.12-2.19-1.56L396.17,358l-2.28-4.82-.61-3.35-3.09-.67-1.54,1.55-1.22,2-3.58.67L380.11,350l-1.81-4.48-2.93.66-1.48-2.93-.33-1.67-3.79-2.87-3.42-1.7-2.6-4.07-3.4-1.36-.34-3.89.52-6.71-4.23-1.74-3.78,1.61-2.23-.76-2.24-3.43.72-6.06-1-2.25-1.6-.83-4.12-.41-6.1,2.14-4.19-2.15-2.6.18-3.19,0-5.4-1.89L316,302.6l-3.3,2.41-6.09.22-3.3.44-4.48-.63-1.44,2.42,1.6,3.86-1.9,2.84-2.3,3-2.92,3.28-2-1.64-.95-2.7-3.24.43-3.52.68-6,.16-3.58-1.07-1.34-.54-2.64-3.19-1-3.4-.1-3.67-4.54-4.88-.94-2.53.46-4.61L261,288.94l.54-5.72,1.32-.84,4.65.22,3.51-3.12-1.27-2.07-2.73.08L265.45,273l-3.3.09.1-2.56,2-2.27h1.33l2.43,0,2.65-4.08.47-1.54,2.12-2.77,2.58-.74,2.95-3,1.55-1.11L283,253.8l1-1.1,2.66-1.71,2.6.15,7.55-1.56.11-.28h5.05l2.61.72,3.15,1.93,4.66-.18,4.67-1.51,7.58-.61L328,248.4l2.77-2.15,1.39-1.6,2-1.72,2.84-1.29,2.25.11h0l2.2.57,1.28.55.92.2,2.42.23,3.48-1.2,2.88.39.88.55,3.6-1.08,2.35-.35,1.13-.31h2.88l2.9-1.44,3.06-1.82,2.45-2.83,1-2.86.5-2.9L370.74,226l-1.08-1.94.48-1.22.13-1.68.82-1.64,3.39-.21,2.28-.52,1.62-2.06.29-6.53-.12-2.54,1.67-2.18,9.21-6.26h0l-1.1,2.22Z"/></g></g></svg>