<?xml version="1.0" encoding="UTF-8"?>
<svg width="21px" height="30px" viewBox="0 0 21 30" version="1.1" xmlns="http://www.w3.org/2000/svg" xmlns:xlink="http://www.w3.org/1999/xlink">
    <!-- Generator: Sketch 61.1 (89650) - https://sketch.com -->
    <title>alfiler</title>
    <desc>Created with Sketch.</desc>
    <g id="alfiler" stroke="none" stroke-width="1" fill="none" fill-rule="evenodd">
        <g>
            <circle id="Oval" fill="#FFFFFF" cx="11" cy="10" r="6"></circle>
            <path d="M10.5,0 C4.70738333,0 0,4.7285176 0,10.5468794 C0,12.5156302 0.542616667,14.4317053 1.57505833,16.0840497 L9.78821667,29.5848757 C9.92833333,29.8133914 10.1383333,29.954075 10.3833917,29.9892313 C10.715775,30.0419071 11.08345,29.9013406 11.2758917,29.5673561 L19.5125583,15.943366 C20.4924417,14.3262365 21,12.4453763 21,10.5468794 C21,4.7285176 16.2926167,0 10.5,0 Z M10.5,15.8203191 C7.56011667,15.8203191 5.25,13.4296931 5.25,10.5468794 C5.25,7.64642898 7.61244167,5.27343971 10.5,5.27343971 C13.3875583,5.27343971 15.75,7.64642898 15.75,10.5468794 C15.75,13.412115 13.4749417,15.8203191 10.5,15.8203191 Z" id="Shape" fill="#004D87" fill-rule="nonzero"></path>
            <path d="M10.5,0.00185346173 L10.5,5.27343971 C13.5250611,5.27343971 15.5,7.64649855 15.5,10.5469754 C15.5,13.412237 13.6166056,15.8203191 10.5,15.8203191 L10.5,30 C10.8984204,29.9084476 11.1570509,29.764233 11.2758917,29.5673561 L19.5147981,16 C20.5414037,14.3828557 21,12.4454895 21,10.5469754 C21,4.7951661 17.431233,0 10.6391837,0 C3.84713438,0 10.5694678,0.00185346173 10.5,0.00185346173 Z" id="Path" fill="#4576DE" fill-rule="nonzero"></path>
        </g>
    </g>
</svg>